<svg xmlns="http://www.w3.org/2000/svg" width="39.619" height="52" viewBox="0 0 39.619 52"><defs><style>.a{fill:#ed7401;}</style></defs><path class="a" d="M38.667,18.333H36.19V13.381a12.381,12.381,0,0,0-24.762,0v4.952H8.952A4.967,4.967,0,0,0,4,23.286V48.048A4.967,4.967,0,0,0,8.952,53H38.667a4.967,4.967,0,0,0,4.952-4.952V23.286A4.967,4.967,0,0,0,38.667,18.333ZM23.81,40.619a4.952,4.952,0,1,1,4.952-4.952A4.967,4.967,0,0,1,23.81,40.619Zm7.676-22.286H16.133V13.381a7.676,7.676,0,0,1,15.352,0Z" transform="translate(-4 -1)"/></svg>