<svg xmlns="http://www.w3.org/2000/svg" width="40" height="41.122" viewBox="0 0 40 41.122"><defs><style>.a{fill:#ed7401;}</style></defs><path class="a" d="M37.552,24.576a16.023,16.023,0,0,0,.144-2.015,16.024,16.024,0,0,0-.144-2.015l4.338-3.393a1.037,1.037,0,0,0,.247-1.316L38.025,8.723a1.033,1.033,0,0,0-1.254-.452l-5.12,2.056a15.022,15.022,0,0,0-3.475-2.015l-.781-5.449A1,1,0,0,0,26.387,2H18.163a1,1,0,0,0-1.007.864l-.781,5.449A15.8,15.8,0,0,0,12.9,10.327L7.78,8.271a1,1,0,0,0-1.254.452L2.413,15.838a1.014,1.014,0,0,0,.247,1.316L7,20.546a16.306,16.306,0,0,0-.144,2.015A16.306,16.306,0,0,0,7,24.576L2.66,27.969a1.037,1.037,0,0,0-.247,1.316L6.525,36.4a1.033,1.033,0,0,0,1.254.452l5.12-2.056a15.022,15.022,0,0,0,3.475,2.015l.781,5.449a1,1,0,0,0,1.007.864h8.224a1,1,0,0,0,1.007-.864l.781-5.449a15.8,15.8,0,0,0,3.475-2.015l5.12,2.056a1,1,0,0,0,1.254-.452l4.112-7.114a1.037,1.037,0,0,0-.247-1.316ZM22.275,29.757a7.2,7.2,0,1,1,7.2-7.2A7.2,7.2,0,0,1,22.275,29.757Z" transform="translate(-2.271 -2)"/></svg>