<svg xmlns="http://www.w3.org/2000/svg" width="180" height="17.132" viewBox="0 0 180 17.132"><defs><style>.a{fill:#373a3c;}</style></defs><path class="a" d="M23.34,2.868V.113H37.491V2.868H23.34Zm0,7.075V7.189H37.491V9.943H23.34Zm0,7.075V14.264H37.491v2.755Zm23.358,0H43.943V2.868H46.7Zm7.057,0H51V2.868h2.755Zm7.075,0H58.075V2.868H60.83ZM16.906,7.189H9.83V.113H7.075V7.189H0V9.943H7.075v7.075H9.83V9.943h7.075ZM129.717.113h0l-8.453,16.906h3.226l5.226-10.151,5.208,10.151h3.245ZM69.943,11.4H67.585V8.585h2.358a2.859,2.859,0,1,0,0-5.717H67.585V.113h2.358a5.789,5.789,0,0,1,5.811,5.623A5.809,5.809,0,0,1,69.943,11.4Zm40.113-.868a5.7,5.7,0,0,0,2.792-4.792A5.776,5.776,0,0,0,107.038.113h-2.358V2.868h2.358a2.859,2.859,0,1,1,0,5.717h-2.358v2.792h2.358c.113,0,.208-.019.321-.019v.019L111.4,17h3.094Zm-20.4,6.6a8.637,8.637,0,0,1-8.641-8.566,8.651,8.651,0,0,1,17.3,0A8.69,8.69,0,0,1,89.66,17.132Zm0-14.358a5.73,5.73,0,0,0-5.717,5.792,5.717,5.717,0,1,0,11.434,0A5.742,5.742,0,0,0,89.66,2.774ZM165.849,17V.113h2.887V14.245H180V17Zm-20.906,0V.113h2.887V14.245h11.245V17Z"/></svg>