<svg xmlns="http://www.w3.org/2000/svg" width="16.861" height="16.109" viewBox="0 0 16.861 16.109"><defs><style>.a{fill:#ed7401;opacity:0.997;}</style></defs><path class="a" d="M236.318,27.548h-.02a2.057,2.057,0,1,1,.02,0Zm1.813,12.36h-3.625V29.033h3.625Zm13.031,0H247.55V34.088c0-1.457-.527-2.456-1.833-2.456a1.974,1.974,0,0,0-1.854,1.32,2.687,2.687,0,0,0-.123.889v6.067h-3.612c.041-9.857,0-10.876,0-10.876h3.612v1.58h-.021A3.585,3.585,0,0,1,247,28.78c2.38,0,4.159,1.56,4.159,4.9Z" transform="translate(-234.3 -23.8)"/></svg>