<svg xmlns="http://www.w3.org/2000/svg" width="40" height="40" viewBox="0 0 40 40"><defs><style>.a{fill:#ed7401;}</style></defs><path class="a" d="M38.556,3H7.444A4.458,4.458,0,0,0,3,7.444V38.556A4.458,4.458,0,0,0,7.444,43H38.556A4.458,4.458,0,0,0,43,38.556V7.444A4.458,4.458,0,0,0,38.556,3ZM23,7.444h3.333v6.667l4.444-6.667h3.778l-4.444,6.667,4.444,6.667H30.778l-4.444-6.667v6.667H23Zm-11.111,5h5.556V10.778H11.889V7.444h8.889v8.333H15.222v1.667h5.556v3.333H11.889ZM38.556,25.222,25.222,38.556l-8.889-8.889L7.444,38.556V33l8.889-8.889L25.222,33,38.556,19.667Z" transform="translate(-3 -3)"/></svg>