<svg xmlns="http://www.w3.org/2000/svg" width="16.622" height="13.506" viewBox="0 0 16.622 13.506"><defs><style>.a{fill:#ed7401;}</style></defs><path class="a" d="M16.622,1.6a6.841,6.841,0,0,1-1.959.537A3.42,3.42,0,0,0,16.163.25,6.815,6.815,0,0,1,14,1.077,3.412,3.412,0,0,0,8.1,3.409a3.448,3.448,0,0,0,.089.778A9.681,9.681,0,0,1,1.158.624,3.413,3.413,0,0,0,2.213,5.176,3.382,3.382,0,0,1,.669,4.75v.043A3.411,3.411,0,0,0,3.4,8.136a3.4,3.4,0,0,1-.9.12,3.355,3.355,0,0,1-.642-.062A3.415,3.415,0,0,0,5.05,10.562,6.851,6.851,0,0,1,.814,12.021,6.874,6.874,0,0,1,0,11.974a9.651,9.651,0,0,0,5.228,1.532,9.636,9.636,0,0,0,9.7-9.7c0-.149,0-.294-.01-.441a6.931,6.931,0,0,0,1.7-1.765Z"/></svg>